<?xml version="1.0" encoding="UTF-8"?>
<svg xmlns="http://www.w3.org/2000/svg" version="1.1" viewBox="0 0 36 36">
  <circle class="st1" cx="18" cy="18" r="17.3" fill="currentColor" stroke="white" stroke-miterlimit="10"/>
  <path class="st0" d="M18.8,15.5c0-.2,0-.4.2-.5.1-.1.3-.2.5-.2h2c.2,0,.4,0,.5.2.1.1.2.3.2.5v2c0,.2,0,.4-.2.5-.1.1-.3.2-.5.2s-.4,0-.5-.2c-.1-.1-.2-.3-.2-.5v-1.2h-1.2c-.2,0-.4,0-.5-.2-.1-.1-.2-.3-.2-.5ZM14.5,21.2h2c.2,0,.4,0,.5-.2.1-.1.2-.3.2-.5s0-.4-.2-.5c-.1-.1-.3-.2-.5-.2h-1.2v-1.2c0-.2,0-.4-.2-.5-.1-.1-.3-.2-.5-.2s-.4,0-.5.2c-.1.1-.2.3-.2.5v2c0,.2,0,.4.2.5.1.1.3.2.5.2ZM24.8,13.5v9c0,.3-.1.6-.4.9s-.6.4-.9.4h-11c-.3,0-.6-.1-.9-.4-.2-.2-.4-.6-.4-.9v-9c0-.3.1-.6.4-.9.2-.2.6-.4.9-.4h11c.3,0,.6.1.9.4.2.2.4.6.4.9ZM23.2,13.8h-10.5v8.5h10.5v-8.5Z" fill="white"/>
</svg>