<svg width="150" height="150" viewBox="0 0 150 150" fill="none" xmlns="http://www.w3.org/2000/svg">
<path d="M48.015 45.9862C40.9121 42.6189 36 35.3831 36 27C36 15.402 45.402 6 57 6C68.598 6 78 15.402 78 27C78 35.3831 73.0879 42.6189 65.985 45.9862" stroke="white" stroke-width="6" stroke-miterlimit="10" stroke-linecap="round" stroke-linejoin="round"/>
<path d="M48 75C48 70.029 43.971 66 39 66C34.029 66 30 70.029 30 75V96C30 120.852 50.148 141 75 141C99.852 141 120 120.852 120 96V75C120 70.029 115.971 66 111 66C106.029 66 102 70.029 102 75V69C102 64.029 97.971 60 93 60C88.029 60 84 64.029 84 69V63C84 58.029 79.971 54 75 54C70.029 54 66 58.029 66 63V27C66 22.029 61.971 18 57 18C52.029 18 48 22.029 48 27V93V75Z" stroke="white" stroke-width="6" stroke-miterlimit="10" stroke-linecap="round" stroke-linejoin="round"/>
</svg>
