<svg width="290" height="80" viewBox="0 0 290 80" fill="none" xmlns="http://www.w3.org/2000/svg">
<g clip-path="url(#clip0_38098_1054)">
<path d="M32.7743 0C14.7016 0 0 14.7435 0 32.8678C0 50.992 14.7016 65.7355 32.7743 65.7355C50.8471 65.7355 65.5487 50.992 65.5487 32.8678C65.5487 14.7435 50.8437 0 32.7743 0Z" fill="#FA4452"/>
<path fill-rule="evenodd" clip-rule="evenodd" d="M57.2356 43.0559C56.746 44.2374 55.3945 44.7966 54.2164 44.3056C53.0383 43.8146 52.4807 42.4592 52.9669 41.2778C53.4565 40.0963 54.808 39.5371 55.9861 40.0247C57.1642 40.5157 57.7218 41.8711 57.2322 43.0525" fill="white"/>
<path fill-rule="evenodd" clip-rule="evenodd" d="M42.8877 57.4159C41.7062 57.9034 40.3581 57.3408 39.8685 56.1594C39.3823 54.9779 39.9433 53.6192 41.1214 53.1316C42.3029 52.644 43.6544 53.2066 44.1406 54.388C44.6268 55.5729 44.0658 56.9249 42.8877 57.4159Z" fill="white"/>
<path fill-rule="evenodd" clip-rule="evenodd" d="M22.6134 57.3988C21.4353 56.9078 20.8777 55.5525 21.3639 54.371C21.8535 53.1896 23.205 52.6304 24.3865 53.118C25.5646 53.609 26.1222 54.9643 25.6326 56.1458C25.143 57.3272 23.7915 57.8898 22.6134 57.3954" fill="white"/>
<path fill-rule="evenodd" clip-rule="evenodd" d="M8.29083 43.0065C7.80463 41.825 8.36563 40.4697 9.54373 39.9821C10.7252 39.4945 12.0733 40.0571 12.5595 41.2386C13.0457 42.4234 12.4847 43.7754 11.3066 44.2664C10.1285 44.754 8.77703 44.1914 8.29083 43.0099" fill="white"/>
<path fill-rule="evenodd" clip-rule="evenodd" d="M8.31307 22.6779C8.80267 21.4964 10.1542 20.9373 11.3357 21.4248C12.5138 21.9158 13.0714 23.2712 12.5818 24.4526C12.0922 25.6341 10.7407 26.1933 9.56257 25.7023C8.38447 25.2113 7.82687 23.856 8.31307 22.6745" fill="white"/>
<path fill-rule="evenodd" clip-rule="evenodd" d="M22.6609 8.31455C23.8424 7.82697 25.1905 8.38957 25.6801 9.57103C26.1663 10.7525 25.6053 12.1078 24.4255 12.5954C23.2474 13.083 21.8959 12.5204 21.4097 11.339C20.9235 10.1541 21.4845 8.80214 22.6626 8.31114" fill="white"/>
<path fill-rule="evenodd" clip-rule="evenodd" d="M42.9336 8.33672C44.1117 8.82772 44.6693 10.1831 44.1797 11.3645C43.6901 12.546 42.3386 13.1052 41.1605 12.6142C39.9824 12.1232 39.4248 10.7678 39.911 9.58637C40.4006 8.40492 41.7521 7.84232 42.9302 8.33331" fill="white"/>
<path fill-rule="evenodd" clip-rule="evenodd" d="M57.256 22.7256C57.7422 23.9105 57.1812 25.2659 56.0031 25.7534C54.825 26.241 53.4735 25.6784 52.9839 24.497C52.4977 23.3155 53.0587 21.9602 54.2368 21.4726C55.4183 20.985 56.7664 21.5476 57.256 22.729" fill="white"/>
<path fill-rule="evenodd" clip-rule="evenodd" d="M35.1918 37.3089C33.3949 39.7894 32.1165 43.8027 34.4914 46.1826C36.103 47.7988 34.8875 50.4788 32.7149 50.4788C30.5423 50.4788 29.3268 47.7988 30.9384 46.1826C33.3133 43.801 32.0383 39.7912 30.238 37.3089C29.9252 36.8776 28.7386 35.5836 28.3408 35.2955C25.8639 33.4934 21.8655 32.2114 19.4923 34.5931C17.8807 36.2093 15.2083 34.9903 15.2083 32.8115C15.2083 30.6327 17.8824 29.4137 19.4923 31.0299C21.8672 33.4116 25.8656 32.1296 28.3408 30.3275C28.7709 30.0138 30.0612 28.8239 30.3485 28.4249C32.1454 25.941 33.4238 21.9346 31.0489 19.5512C29.4373 17.935 30.6528 15.255 32.8254 15.255C34.998 15.255 36.2135 17.9367 34.6019 19.5512C32.227 21.9329 33.5054 25.9427 35.3023 28.4249C35.6151 28.8563 36.8017 30.1502 37.1995 30.4384C39.6764 32.2404 43.6714 33.5224 46.048 31.1408C47.6596 29.5246 50.332 30.7435 50.332 32.9223C50.332 35.1011 47.6596 36.3201 46.048 34.7039C43.6731 32.3222 39.6747 33.6043 37.1995 35.4063C36.7694 35.72 35.4791 36.91 35.1918 37.3089Z" fill="white"/>
<path fill-rule="evenodd" clip-rule="evenodd" d="M45.3765 20.228C46.7348 21.5902 46.7348 23.7963 45.3765 25.155C44.0182 26.5138 41.8184 26.5172 40.4635 25.155C39.1086 23.7929 39.1052 21.5868 40.4635 20.228C41.8218 18.8658 44.0216 18.8658 45.3765 20.228Z" fill="white"/>
<path fill-rule="evenodd" clip-rule="evenodd" d="M45.38 45.5092C44.0217 46.8714 41.8219 46.8714 40.4636 45.5092C39.1052 44.147 39.1052 41.941 40.4636 40.5822C41.8219 39.22 44.0183 39.22 45.3766 40.5822C46.7349 41.9444 46.7349 44.1505 45.3766 45.5092" fill="white"/>
<path fill-rule="evenodd" clip-rule="evenodd" d="M20.1689 45.5092C18.8106 44.147 18.8106 41.941 20.1689 40.5822C21.5272 39.22 23.727 39.22 25.0819 40.5822C26.4402 41.9444 26.4402 44.1505 25.0819 45.5092C23.7236 46.8714 21.5238 46.8714 20.1689 45.5092Z" fill="white"/>
<path fill-rule="evenodd" clip-rule="evenodd" d="M20.1689 20.228C21.5272 18.8658 23.727 18.8658 25.0819 20.228C26.4402 21.5902 26.4402 23.7963 25.0819 25.1584C23.7236 26.5206 21.5238 26.5206 20.1689 25.1584C18.8106 23.7963 18.8106 21.5936 20.1689 20.2314" fill="white"/>
<path fill-rule="evenodd" clip-rule="evenodd" d="M133.42 3.21704C134.055 3.21704 134.572 2.69877 134.572 2.05945C134.572 1.42013 134.054 0.901855 133.42 0.901855C132.786 0.901855 132.265 1.42013 132.265 2.05945C132.265 2.69877 132.784 3.21704 133.42 3.21704Z" fill="black"/>
<path fill-rule="evenodd" clip-rule="evenodd" d="M132.519 20.7821H134.321V5.41119H132.519V20.7804V20.7821Z" fill="black"/>
<path fill-rule="evenodd" clip-rule="evenodd" d="M96.6213 13.0557C96.6213 9.83868 99.1356 7.21833 102.228 7.21833C105.32 7.21833 107.835 9.83698 107.835 13.0557V13.2961C107.716 16.4705 105.252 18.9545 102.228 18.9545C99.2036 18.9545 96.6213 16.3086 96.6213 13.0557ZM102.226 20.7616C104.404 20.7616 106.424 19.7967 107.831 18.1004V20.7804H109.635V5.41119H107.831V8.04348C106.435 6.36591 104.416 5.41119 102.226 5.41119C98.1411 5.41119 94.8176 8.83964 94.8176 13.0557C94.8176 17.2718 98.1411 20.7616 102.226 20.7616Z" fill="black"/>
<path fill-rule="evenodd" clip-rule="evenodd" d="M121.785 18.9528C118.762 18.9528 116.301 16.4688 116.178 13.2944V13.054C116.178 9.83698 118.693 7.21663 121.785 7.21663C124.877 7.21663 127.39 9.83528 127.39 13.054C127.39 16.2728 124.875 18.9528 121.785 18.9528ZM129.192 13.0557C129.192 8.83964 125.868 5.41119 121.783 5.41119C119.594 5.41119 117.574 6.3642 116.177 8.04348V5.41119H114.373V26.3212H116.177V18.1004C117.584 19.7984 119.605 20.7616 121.783 20.7616C125.868 20.7616 129.192 17.3059 129.192 13.0557Z" fill="black"/>
<path fill-rule="evenodd" clip-rule="evenodd" d="M162.908 5.41119C161.196 5.41119 159.576 6.11188 158.403 7.34619V5.41119H156.662V20.7804H158.403V11.6782C158.462 9.20277 160.482 7.18764 162.908 7.18764C165.334 7.18764 167.381 9.19936 167.381 11.6731V20.7804H169.152V11.6731C169.152 8.21908 166.35 5.40948 162.908 5.40948" fill="black"/>
<path fill-rule="evenodd" clip-rule="evenodd" d="M178.471 19.0295L178.293 19.0789C178.121 19.1267 177.83 19.1829 177.417 19.1829C176.693 19.1829 176.382 18.7226 176.382 17.6418V7.1774H178.509V5.41289H176.382V0.248901H174.536V5.41118H172.397V7.1757H174.536V17.6929C174.536 18.8488 174.743 19.6023 175.185 20.0609C175.595 20.5315 176.224 20.7804 177.003 20.7804C177.587 20.7804 178.106 20.7003 178.461 20.5519L178.561 20.511L178.471 19.0295Z" fill="black"/>
<path fill-rule="evenodd" clip-rule="evenodd" d="M145.607 7.20638C148.249 7.20638 150.515 9.12263 151.059 11.7856H140.065C140.668 9.08001 142.923 7.20638 145.605 7.20638H145.607ZM150.304 16.358C149.321 17.9895 147.523 19.0039 145.605 19.0039C142.625 19.0039 140.169 16.6137 139.948 13.5314H152.098C152.594 13.5314 152.983 13.1699 152.983 12.7045V12.5698C152.665 8.49865 149.493 5.42822 145.605 5.42822C141.505 5.42822 138.166 8.88565 138.166 13.1341C138.166 17.3826 141.503 20.7787 145.605 20.7787C148.111 20.7787 150.416 19.4864 151.781 17.3229L150.304 16.358Z" fill="black"/>
<path fill-rule="evenodd" clip-rule="evenodd" d="M90.6695 13.3626C90.6695 13.3626 90.202 12.9961 89.6954 12.7847C89.1905 12.5716 88.4663 12.3244 86.9635 11.9561C86.7595 11.9067 86.5606 11.864 86.3736 11.8163C85.3689 11.564 84.575 11.2247 84.0157 10.8053C83.4598 10.3246 83.2524 9.92563 83.2762 9.38519C83.3017 8.81407 83.6417 8.25999 84.2384 7.82355C84.9167 7.32062 85.9061 7.07001 87.0264 7.11945C88.2963 7.17571 89.2619 7.81162 90.304 8.57369L90.4043 8.64699L91.715 7.42291C91.5569 7.27289 91.5263 7.24902 91.0877 6.94726C90.0575 6.24827 88.7927 5.50837 87.0995 5.43506C85.6256 5.37028 84.3098 5.67203 83.2915 6.31135C82.1882 7.06149 81.4912 8.15088 81.4776 9.30507C81.4657 10.166 81.6425 10.9724 82.501 11.801C83.5261 12.7915 85.1207 13.3132 86.5793 13.5962C87.8305 13.8383 88.9865 14.3037 89.5679 14.7879C90.2632 15.4272 90.5097 15.8909 90.5097 16.5558C90.4825 17.1934 90.0677 17.802 89.3588 18.2334C88.6482 18.767 87.6316 19.0466 86.5708 18.9988C85.1734 18.9375 83.7301 18.3271 82.2749 17.1849L82.1746 17.1047L80.8894 18.2862L81.0169 18.397C82.7101 19.8632 84.5529 20.6628 86.4926 20.7719C87.9461 20.8367 89.2126 20.4889 90.3703 19.7132C91.5671 18.8829 92.2284 17.8174 92.2811 16.6325C92.3355 15.3726 91.7184 14.1196 90.6695 13.3609" fill="black"/>
<path d="M277.568 46.169H274.7V39.8815H277.568V30.9839H284.9V39.8815H290V46.169H284.9V53.9482C284.9 57.9972 285.378 60.3414 288.087 60.3414C288.565 60.3414 289.043 60.2886 289.415 60.2357V66.6289C288.618 66.7363 287.13 66.7891 286.333 66.7891C280.648 66.7891 277.568 62.5799 277.568 56.5601V46.1707V46.169Z" fill="black"/>
<path d="M251.357 52.8298C251.357 56.9863 254.597 60.2357 258.689 60.2357C262.781 60.2357 266.074 56.9317 266.074 52.9372C266.074 48.9428 262.727 45.6388 258.689 45.6388C254.652 45.6388 251.357 48.9956 251.357 52.8315V52.8298ZM244.618 52.7224C244.618 45.7189 250.135 39.0308 258.742 39.0308C266.435 39.0308 272.76 44.7847 272.76 52.8827C272.76 60.4318 267.296 66.7874 258.584 66.7874C249.871 66.7874 244.62 59.7259 244.62 52.7224H244.618Z" fill="black"/>
<path d="M210.78 41.6937L207.167 45.9559C205.68 44.8375 204.245 44.251 202.865 44.251C201.27 44.251 200.049 45.2109 200.049 46.4349C200.049 47.659 200.74 48.1398 204.192 49.3656C210.249 51.4966 212.109 53.3089 212.109 57.4636C212.109 62.9515 207.592 66.8403 201.217 66.8403C197.233 66.8403 193.94 65.4014 191.335 62.5253L195.108 58.0501C197.125 60.0754 199.198 61.1392 201.27 61.1392C203.13 61.1392 204.565 59.9135 204.565 58.2632C204.565 56.8243 203.98 56.185 200.58 54.9592C194.258 52.7207 192.982 51.0159 192.982 47.2345C192.982 42.1728 197.073 38.9234 202.28 38.9234C205.467 38.9234 208.283 39.8286 210.78 41.6937Z" fill="black"/>
<path d="M131.662 65.9896V39.8832H138.992V43.1327C141.117 40.4151 143.827 39.0308 147.12 39.0308C152.38 39.0308 156.79 42.0671 156.79 49.0996V65.9896H149.457V51.6569C149.457 47.2874 148.235 45.2637 144.517 45.2637C140.799 45.2637 138.992 47.555 138.992 52.4565V65.9896H131.662Z" fill="black"/>
<path d="M119.157 39.8832H126.489V65.9896H119.157V39.8832ZM118.466 31.8807C118.466 29.4836 120.432 27.5111 122.822 27.5111C125.212 27.5111 127.177 29.4819 127.177 31.8807C127.177 34.2794 125.212 36.2502 122.822 36.2502C120.432 36.2502 118.466 34.2794 118.466 31.8807Z" fill="black"/>
<path d="M100.334 41.6937L96.7215 45.9559C95.234 44.8375 93.7992 44.251 92.4188 44.251C90.8259 44.251 89.6036 45.2109 89.6036 46.4349C89.6036 47.659 90.2938 48.1398 93.7482 49.3656C99.8036 51.4966 101.663 53.3089 101.663 57.4636C101.663 62.9515 97.1482 66.8403 90.7732 66.8403C86.7884 66.8403 83.4955 65.4014 80.8911 62.5253L84.6634 58.0501C86.683 60.0754 88.7536 61.1392 90.8259 61.1392C92.6857 61.1392 94.1188 59.9135 94.1188 58.2632C94.1188 56.8243 93.5357 56.185 90.134 54.9592C83.8117 52.7207 82.5367 51.0159 82.5367 47.2345C82.5367 42.1728 86.6269 38.9234 91.834 38.9234C95.0215 38.9234 97.8367 39.8286 100.334 41.6937Z" fill="black"/>
<path d="M112.061 53.1503C112.061 57.1994 112.751 59.5435 115.461 59.5435C115.779 59.5435 116.1 59.4907 116.47 59.4378V65.831C115.673 65.9384 114.718 65.9896 114.026 65.9896C107.544 65.9896 104.729 61.4615 104.729 55.4417V27.8078H112.061V53.152V53.1503Z" fill="black"/>
<path d="M222.931 43.2929C225.004 40.4697 227.712 39.0308 231.059 39.0308C234.779 39.0308 237.169 40.4168 238.922 42.6008C240.304 44.3585 240.729 46.7043 240.729 49.5804V65.9896H233.398V51.6586C233.398 47.0231 232.071 45.2637 228.456 45.2637C224.739 45.2637 222.933 47.7153 222.933 52.6167V65.9896H215.601V27.5111H222.933V43.2929H222.931Z" fill="black"/>
<path fill-rule="evenodd" clip-rule="evenodd" d="M188.352 63.3743L188.274 67.5018C188.153 69.3669 187.894 70.8109 187.554 71.798C185.907 76.6466 180.754 80.0034 174.432 80.0034C166.887 80.0034 161.15 75.2622 160.567 69.0822H168.429C169.174 72.2259 171.245 73.7705 174.592 73.7705C178.422 73.7705 180.658 71.7741 181.02 67.6586V63.5465C170.86 70.3693 160.521 61.9695 160.521 52.8929C160.521 45.5416 165.847 40.4595 172.307 39.786C175.76 39.786 178.789 40.3725 181.02 43.1957V39.786H188.352V63.376V63.3743ZM174.058 45.5382C170.021 45.5382 166.78 48.9479 166.78 52.7838C166.78 56.8328 169.915 60.1368 174.058 60.1368C178.203 60.1368 181.389 56.78 181.389 52.8384C181.389 48.8967 178.096 45.5399 174.058 45.5399V45.5382Z" fill="black"/>
</g>
<defs>
<clipPath id="clip0_38098_1054">
<rect width="290" height="80" fill="white"/>
</clipPath>
</defs>
</svg>
