<svg width="184" height="100" viewBox="0 0 184 100" fill="none" xmlns="http://www.w3.org/2000/svg">
<path d="M142.345 31.4334C140.323 32.904 137.933 33.8231 135.176 33.8231C128.926 33.8231 123.963 28.8599 123.963 22.7937C123.963 16.7274 129.11 11.7642 135.176 11.7642C137.933 11.7642 140.323 12.6833 142.345 14.1539L144.735 11.7642C142.161 9.55826 138.853 8.27148 135.176 8.27148C127.088 8.27148 120.47 14.7054 120.47 22.6098C120.47 30.5143 127.088 36.9482 135.176 36.9482C138.853 36.9482 142.161 35.6614 144.735 33.4555L142.345 31.4334Z" fill="black"/>
<path fill-rule="evenodd" clip-rule="evenodd" d="M14.4041 8.63916C21.9408 8.63916 28.1908 14.8892 28.1908 22.7937C28.1908 30.6982 21.9408 37.132 14.4041 37.3159C10.36 37.3159 6.49966 35.4776 3.92613 32.3526V47.61H0.61731V8.63916H3.92613V13.6024C6.49966 10.4774 10.36 8.63916 14.4041 8.63916ZM3.74231 23.3453C3.92613 29.2277 8.52172 33.8234 14.2202 33.8234C20.1026 33.8234 24.6982 28.8601 24.6982 22.9777C24.6982 17.0953 19.9188 12.132 14.2202 12.132C8.52172 12.132 3.74231 16.9115 3.74231 22.9777V23.3453Z" fill="black"/>
<path d="M53.3746 8.45557V25.3675C53.3746 29.9631 49.6981 33.6396 44.9187 33.8234C40.3231 33.8234 36.6467 30.1469 36.6467 25.3675V8.45557H33.3378V25.3675C33.3378 31.8013 38.4849 37.1323 44.9187 37.1323C51.3525 37.1323 56.6834 31.8013 56.6834 25.3675V8.45557H53.3746Z" fill="black"/>
<path fill-rule="evenodd" clip-rule="evenodd" d="M66.7938 13.4192C69.3673 10.2942 73.2276 8.45595 77.2717 8.45595C84.8085 8.45595 91.0585 14.8898 91.0585 22.9781C91.0585 30.6988 84.8085 37.1326 77.2717 37.1326C73.2276 37.1326 69.3673 35.2944 66.7938 32.1694V37.1326H63.485V0H66.7938V13.4192ZM77.2718 33.8237C82.9704 33.8237 87.7498 29.0442 87.7498 22.978C87.7498 16.9118 82.9704 11.9485 77.2718 12.1323C71.5733 12.1323 66.9777 16.7279 66.7939 22.6103V22.978C66.7939 28.8604 71.5733 33.8237 77.2718 33.8237Z" fill="black"/>
<path d="M112.198 4.4118C113.301 4.4118 114.404 3.49267 114.404 2.2059C114.404 0.919124 113.485 0 112.198 0C111.095 0 109.992 0.919124 109.992 2.2059C109.992 3.49267 110.911 4.4118 112.198 4.4118Z" fill="black"/>
<path d="M110.544 8.45557V37.1323H113.853V8.45557H110.544Z" fill="black"/>
<path d="M154.294 4.4118C155.397 4.4118 156.5 3.49267 156.5 2.2059C156.5 0.919124 155.58 0 154.294 0C153.191 0 152.088 0.919124 152.088 2.2059C152.088 3.49267 153.007 4.4118 154.294 4.4118Z" fill="black"/>
<path d="M152.639 8.45557V37.1323H155.948V8.45557H152.639Z" fill="black"/>
<path d="M180.948 23.346C180.948 23.346 180.029 22.6107 179.11 22.243C178.191 21.8754 176.904 21.3239 173.963 20.7724C173.595 20.5886 173.227 20.5886 172.86 20.5886C171.022 20.0371 169.551 19.4856 168.448 18.7503C167.345 17.8312 166.977 17.0959 166.977 16.1768C166.977 15.0738 167.713 14.1547 168.816 13.2356C170.102 12.3165 171.941 11.765 173.963 11.9488C176.352 12.1326 178.191 13.2356 180.029 14.7062L180.213 14.89L182.602 12.6841C182.235 12.3165 182.235 12.3165 181.499 11.765C179.661 10.4782 177.272 9.00761 173.963 9.00761C171.205 8.82379 168.816 9.37526 166.794 10.662C164.772 12.1326 163.485 14.1547 163.485 16.1768C163.485 17.8312 163.852 19.3018 165.323 20.7724C167.161 22.6107 170.286 23.5298 172.86 24.0813C175.249 24.4489 177.272 25.368 178.374 26.2872C179.661 27.3901 180.213 28.3092 180.213 29.596C180.213 30.699 179.294 31.9857 178.007 32.721C176.72 33.6402 174.698 34.1916 172.86 34.1916C170.286 34.0078 167.529 32.9049 164.772 30.8828L164.588 30.699L162.198 32.9049L162.382 33.0887C165.507 35.8461 168.999 37.3167 172.676 37.5005C175.433 37.6843 177.823 36.949 179.845 35.4784C182.051 34.0078 183.338 31.9857 183.338 29.7798C184.073 27.0225 182.97 24.8166 180.948 23.346Z" fill="black"/>
<path d="M97.3083 0.183838V37.1326H100.617V0.183838H97.3083Z" fill="black"/>
<path d="M98.9627 56.8014C100.066 56.8014 101.169 55.8823 101.169 54.5955C101.169 53.3088 100.249 52.3896 98.9627 52.3896C97.8598 52.3896 96.7568 53.3088 96.7568 54.5955C96.7568 55.8823 97.676 56.8014 98.9627 56.8014Z" fill="#FE414D"/>
<path d="M97.3085 60.8452V89.5219H100.617V60.8452H97.3085Z" fill="#FE414D"/>
<path fill-rule="evenodd" clip-rule="evenodd" d="M51.1687 84.5603C48.5952 87.6854 44.7349 89.5236 40.6907 89.5236C33.154 89.5236 26.904 83.0897 26.904 75.0014C26.904 67.2808 33.154 60.8469 40.6907 60.8469C44.7349 60.8469 48.5952 62.6852 51.1687 65.8102V60.8469H54.4775V89.5236H51.1687V84.5603ZM40.6908 64.3399C34.9923 64.3399 30.2129 69.1194 30.2129 75.1856C30.2129 81.2518 34.9923 86.2151 40.6908 86.0313C46.3893 86.0313 50.9849 81.4356 51.1687 75.5532V75.1856C51.1687 69.3032 46.3893 64.3399 40.6908 64.3399Z" fill="#FE414D"/>
<path fill-rule="evenodd" clip-rule="evenodd" d="M77.2717 61.0291C84.8085 61.0291 91.0585 67.2791 91.0585 75.1836C91.0585 83.088 84.8085 89.5219 77.2717 89.7057C73.2276 89.7057 69.3673 87.8675 66.7938 84.7425V99.9999H63.485V61.0291H66.7938V65.9923C69.3673 62.8673 73.2276 61.0291 77.2717 61.0291ZM66.7939 75.7351C66.9777 81.6175 71.5733 86.2131 77.2718 86.2131C82.9704 86.2131 87.7498 81.2498 87.7498 75.3674C87.7498 69.485 82.9704 64.5217 77.2718 64.5217C71.5733 64.5217 66.7939 69.3012 66.7939 75.3674V75.7351Z" fill="#FE414D"/>
<path d="M153.926 60.8469C150.801 60.8469 147.676 62.1337 145.47 64.5234V60.8469H142.161V89.5236H145.47V72.6117C145.654 68.0161 149.33 64.3396 153.926 64.3396C158.522 64.3396 162.198 68.0161 162.198 72.6117V89.5236H165.507V72.6117C165.691 66.1778 160.36 60.8469 153.926 60.8469Z" fill="#FE414D"/>
<path d="M183.154 86.2146H182.786C182.419 86.2146 181.867 86.3984 181.132 86.3984C179.845 86.3984 179.11 85.4793 179.11 83.4572V63.9717H183.154V60.6629H179.11V51.104H175.617V60.6629H171.573V63.9717H175.617V83.641C175.617 85.8469 175.985 87.1337 176.904 88.0528C177.639 88.9719 178.926 89.3396 180.213 89.3396C181.316 89.3396 182.235 89.1558 182.97 88.9719H183.154V86.2146Z" fill="#FE414D"/>
<path fill-rule="evenodd" clip-rule="evenodd" d="M121.573 86.2133C125.25 86.2133 128.558 84.3751 130.397 81.2501L133.154 83.2721C130.58 87.3163 126.169 89.706 121.573 89.706C113.853 89.706 107.603 83.456 107.603 75.5515C107.603 67.647 113.853 61.2131 121.573 61.2131C128.926 61.2131 134.808 66.9117 135.36 74.4485V74.6324C135.36 75.3677 134.625 76.103 133.705 76.103H111.095C111.463 81.8015 116.058 86.2133 121.573 86.2133ZM131.867 72.7942C130.948 67.831 126.72 64.3383 121.757 64.3383C116.61 64.3383 112.566 67.831 111.279 72.7942H131.867Z" fill="#FE414D"/>
<path d="M19.1835 75.7356C19.1835 75.7356 18.2643 75.0003 17.3452 74.6327C16.4261 74.265 15.1393 73.7135 12.1982 73.1621C11.8305 72.9782 11.4629 72.9782 11.0952 72.9782C9.257 72.4268 7.78641 71.8753 6.68347 71.14C5.58053 70.2209 5.21288 69.4856 5.21288 68.5664C5.21288 67.4635 5.94817 66.5444 7.05111 65.6252C8.33788 64.7061 10.1761 64.1546 12.1982 64.3385C14.5879 64.5223 16.4261 65.6252 18.2643 67.0958L18.4482 67.2797L20.8379 65.0738C20.4702 64.7061 20.4702 64.7061 19.7349 64.1546C17.8967 62.8679 15.507 61.3973 12.1982 61.3973C9.44082 61.2134 7.05111 61.7649 5.02906 63.0517C3.007 64.5223 1.72024 66.5444 1.72024 68.5664C1.72024 70.2209 2.08788 71.6915 3.55847 73.1621C5.3967 75.0003 8.5217 75.9194 11.0952 76.4709C13.4849 76.8386 15.507 77.7577 16.6099 78.6768C17.8967 79.7798 18.4482 80.6989 18.4482 81.9857C18.4482 83.0886 17.5291 84.3754 16.2423 85.1107C14.9555 86.0298 12.9335 86.5813 11.0952 86.5813C8.5217 86.3974 5.76435 85.2945 3.007 83.2724L2.82318 83.0886L0.433472 85.2945L0.617295 85.4783C3.74229 88.2357 7.23494 89.7063 10.9114 89.8901C13.6688 90.0739 16.0585 89.3386 18.0805 87.8681C20.2864 86.3975 21.5732 84.3754 21.5732 82.1695C22.3085 79.4121 21.0217 77.2062 19.1835 75.7356Z" fill="#FE414D"/>
</svg>
