<svg viewBox="0 0 72 72" fill="none" xmlns="http://www.w3.org/2000/svg">
<rect x="0.5" y="0.5" style="width: 100%; height: 100%;" rx="35.5" fill="black"/>
<rect x="0.5" y="0.5" style="width: 100%; height: 100%;" rx="35.5" stroke="white"/>
<path d="M51.75 36C51.7509 36.3819 51.653 36.7577 51.4657 37.0906C51.2784 37.4235 51.0082 37.7023 50.6812 37.8998L30.42 50.2945C30.0784 50.5037 29.6872 50.6179 29.2867 50.6253C28.8862 50.6327 28.491 50.5331 28.1419 50.3367C27.7961 50.1434 27.508 49.8614 27.3074 49.5198C27.1067 49.1783 27.0006 48.7894 27 48.3933V23.6067C27.0006 23.2105 27.1067 22.8217 27.3074 22.4801C27.508 22.1385 27.7961 21.8566 28.1419 21.6633C28.491 21.4669 28.8862 21.3672 29.2867 21.3747C29.6872 21.3821 30.0784 21.4963 30.42 21.7054L50.6812 34.1001C51.0082 34.2977 51.2784 34.5764 51.4657 34.9094C51.653 35.2423 51.7509 35.618 51.75 36Z" fill="white"/>
</svg>
